<svg version="1.1" xmlns="http://www.w3.org/2000/svg" style="display: block;" viewBox="0 0 2048 2048" width="1024" height="1024" preserveAspectRatio="none">
<path transform="translate(0,0)" fill="rgb(254,254,254)" d="M 480.658 260.463 C 572.185 259.809 663.715 259.708 755.243 260.161 L 1104.27 260.243 C 1187.9 257.701 1273.51 261.851 1357.36 260.093 C 1371.04 259.806 1385.93 259.846 1399.62 260.19 C 1441.34 259.806 1490.67 259.263 1532.09 260.43 C 1531.77 288.596 1531.68 316.764 1531.82 344.932 C 1531.83 359.871 1531.32 379.089 1532.1 393.75 C 1493.36 392.759 1453.13 393.522 1414.27 393.521 L 1208.51 393.339 L 1124.17 393.489 C 1114.58 393.477 1094.43 394.03 1085.3 393.232 C 1086.65 426.593 1085.71 465.795 1085.71 499.482 L 1085.63 694.939 L 1085.57 1286.54 L 1085.67 1501.38 L 1085.58 1565.52 C 1085.62 1581.52 1084.18 1597.34 1089.87 1612.6 C 1108.15 1661.62 1158.35 1659.63 1203.4 1658.18 C 1203.57 1675.78 1203.63 1693.38 1203.59 1710.98 C 1203.58 1717.66 1203.13 1732.98 1203.77 1739.12 C 1197.6 1740.35 1150.4 1739.84 1141 1739.84 L 988.786 1739.82 L 864.835 1739.83 C 854.579 1739.82 815.341 1740.45 806.874 1739.07 C 805.214 1717.57 806.688 1681.6 806.397 1658.37 C 837.37 1656.69 871.196 1664.04 898.517 1644.33 C 919.46 1629.22 925.128 1605.05 925.092 1580.59 C 925.064 1560.59 925.013 1540.6 924.984 1520.61 L 925.039 1368.16 L 925.038 675.205 L 925.041 483.95 L 925.055 430.539 C 925.065 419.713 924.61 403.724 926.338 393.411 L 480.68 393.266 C 480.925 348.999 480.917 304.73 480.658 260.463 z"/>
<path transform="translate(0,0)" fill="rgb(219,220,221)" d="M 806.874 1739.07 C 815.079 1738.01 829.307 1738.4 837.982 1738.42 L 889.795 1738.53 L 1059.87 1738.55 L 1158.6 1738.49 C 1167.26 1738.49 1197.11 1737.93 1203.77 1739.12 C 1197.6 1740.35 1150.4 1739.84 1141 1739.84 L 988.786 1739.82 L 864.835 1739.83 C 854.579 1739.82 815.341 1740.45 806.874 1739.07 z"/>
<path transform="translate(0,0)" fill="rgb(219,220,221)" d="M 1104.27 260.243 C 1187.9 257.701 1273.51 261.851 1357.36 260.093 C 1371.04 259.806 1385.93 259.846 1399.62 260.19 C 1386.57 264.52 1294.06 261.443 1271.74 261.437 L 1162.44 261.434 C 1155.15 261.428 1107.7 262.097 1104.27 260.243 z"/>
<path transform="translate(0,0)" fill="rgb(254,254,254)" d="M 1773.06 444.425 C 1783.93 443.396 1806.12 444.021 1817.89 444.063 L 1817.75 457.449 C 1805.91 461.221 1800.14 461.886 1800.01 475.132 L 1799.76 692.027 L 1799.71 1132.08 L 1799.74 1335.46 L 1799.75 1397.71 C 1799.79 1430.2 1798.38 1459.68 1822.99 1484.84 C 1850.69 1513.16 1895.2 1508.34 1931.62 1508.28 L 1931.62 1587.44 C 1890.25 1588.88 1841.79 1587.64 1800 1587.63 L 1515.29 1587.95 C 1514.69 1562.18 1515.14 1534.08 1515.32 1508.19 C 1516.72 1508.21 1518.12 1508.23 1519.51 1508.23 C 1558.85 1508.39 1606.64 1514.69 1636.88 1483.96 C 1666.54 1453.81 1660.79 1406.17 1660.77 1366.6 L 1660.72 1252.13 L 1660.85 847.695 C 1659.63 764.131 1660.36 675.914 1660.77 592.116 C 1620.75 600.251 1568.34 617.216 1530.87 632.949 C 1486.12 651.311 1443.63 674.756 1404.23 702.824 C 1269.73 800.409 1178.1 960.409 1116.36 1111.54 C 1111.74 1111.76 1109.1 1111.98 1104.55 1112.75 C 1102.01 1045.36 1104.01 873.91 1105.62 807.78 C 1106.04 790.336 1219.7 670.603 1241.08 651.84 C 1282.96 615.193 1328.48 582.939 1376.94 555.582 C 1493.18 491.062 1640.82 453.048 1773.06 444.425 z"/>
<path transform="translate(0,0)" fill="rgb(254,254,254)" d="M 898.645 410.521 L 909.83 410.465 C 909.216 421.199 909.709 435.591 909.73 446.754 L 909.676 514.221 C 856.602 526.94 816.516 540.119 769.747 570.009 C 673.647 630.499 605.677 726.856 580.933 837.681 C 554.557 958.481 573.365 1096.31 641.662 1200.55 C 702.942 1294.08 799.507 1365.3 909.494 1388.42 C 910.433 1434.83 910.678 1494.79 909.515 1541.05 C 899.873 1538.71 881.869 1537.74 870.642 1535.65 C 841.947 1530.31 818.403 1523.32 791.287 1513.06 C 722.468 1488.35 648.62 1439.08 595.791 1389.01 C 480.823 1279.96 413.629 1129.88 408.858 971.492 C 404.796 806.925 452.739 653.485 569.9 536.003 C 613.892 491.891 665.194 453.923 720.449 424.895 C 726.487 421.723 746.942 411.507 752.465 411.31 C 801.041 409.578 849.991 411.604 898.645 410.521 z"/>
<path transform="translate(0,0)" fill="rgb(254,254,254)" d="M 192.932 444.096 C 283.876 440.187 394.193 460.511 480.469 488.236 C 506.91 496.732 530.095 507.744 554.64 515.746 C 523.672 545.49 496.656 580.238 473.818 616.509 C 470.564 621.677 465.897 634.004 460.831 636.59 C 456.471 635.679 450.886 632.837 446.91 630.736 C 415.845 614.318 382.989 603.886 349.821 592.494 C 350.621 662.677 350.812 732.865 350.395 803.05 L 350.312 1195.56 L 350.321 1348.37 C 350.269 1370.85 349.659 1393.58 350.283 1416.04 C 352.972 1512.81 419.493 1508.08 493.067 1508.35 L 493.021 1530.25 C 493.001 1541.61 492.32 1577.97 493.771 1587.75 L 79.0283 1587.82 C 79.8216 1562.96 79.0056 1533.63 78.8615 1508.51 C 103.865 1507.25 126.176 1510.58 151.414 1504.25 C 190.227 1494.53 209.467 1459.94 210.561 1421.62 C 211.407 1392.02 210.554 1361.46 210.551 1331.52 L 210.561 1150.39 L 210.647 602.274 C 210.647 565.534 211.32 505.815 209.726 467.795 C 209.54 463.352 198.794 458.35 194.159 456.156 C 193.73 452.138 193.321 448.118 192.932 444.096 z"/>
<path transform="translate(0,0)" fill="rgb(254,254,254)" d="M 1292.97 916.374 C 1305.29 915.765 1323.3 916.379 1336.18 916.388 L 1420.61 916.293 C 1483.78 916.17 1554.43 914.757 1616.98 916.464 C 1617.48 1008.71 1602.81 1099.46 1566.48 1184.74 C 1504.52 1330.54 1387.73 1446.15 1241.3 1506.63 C 1203.26 1522.92 1145.67 1538.15 1104.3 1540.23 C 1103.62 1501.27 1104.43 1462.09 1104.04 1423.11 C 1103.93 1411.77 1103.95 1400.13 1104.59 1388.83 C 1149.67 1380.81 1200.41 1361.2 1239.51 1337.46 C 1347.38 1271.97 1411.52 1175.68 1442.26 1055.44 C 1428.98 1056.15 1410.83 1055.55 1397.1 1055.52 C 1362.3 1055.26 1327.49 1055.21 1292.68 1055.39 C 1291.83 1035.28 1292.5 1010.69 1292.55 990.137 C 1292.6 966.507 1292.05 939.786 1292.97 916.374 z"/>
<path transform="translate(0,0)" fill="rgb(254,254,254)" d="M 736.061 617.716 C 741.157 619.236 755.799 632.684 760.569 636.873 C 805.451 675.939 846.386 719.321 882.784 766.392 C 891.501 777.485 901.591 789.813 909.488 801.367 C 911.193 833.725 909.795 877.777 909.784 911.548 L 909.624 1110.35 L 908.438 1111.5 C 904.234 1111.79 903.809 1111.97 899.922 1110.68 C 896.885 1106.78 878.449 1064.77 875.202 1057.58 C 828.146 959.481 780.466 863.749 703.206 785.486 C 684.238 766.272 664.732 746.559 643.827 729.486 C 647.496 725.078 650.27 720.799 653.541 716.152 C 678.479 680.728 704.682 647.576 736.061 617.716 z"/>
<path transform="translate(0,0)" fill="rgb(254,254,254)" d="M 1185.63 410.55 C 1207.48 409.69 1242.75 410.331 1265.04 411.597 C 1269.35 411.842 1287.01 422.001 1291.77 424.747 C 1336.26 450.82 1378.07 481.225 1416.58 515.517 C 1382.33 531.495 1343.72 551.154 1312.52 572.461 C 1300.05 580.67 1287.75 589.143 1275.63 597.873 C 1265.73 588.014 1252.66 579.154 1241 571.404 C 1195.99 541.471 1155.93 527.785 1104.26 514.757 C 1103.3 480.479 1104.05 444.94 1104.35 410.541 C 1128.48 411.309 1161.46 411.075 1185.63 410.55 z"/>
<path transform="translate(0,0)" fill="rgb(254,254,254)" d="M 1532.89 656.034 C 1534.7 655.882 1533.74 655.755 1535.73 656.731 C 1547.12 676.311 1556.08 700.948 1564.55 721.99 C 1577.95 755.301 1586.37 790.862 1595.46 825.541 C 1580.08 826.333 1559.34 825.884 1543.62 825.87 L 1456.25 825.902 L 1438.06 825.763 C 1423.39 792.681 1410.27 764.003 1390.21 734.007 C 1395.38 729.009 1408.97 721.118 1415.36 717.052 C 1452.82 693.229 1492.34 674.085 1532.89 656.034 z"/>
</svg>